<svg xmlns="http://www.w3.org/2000/svg" viewBox="0 0 64 64">
  <defs>
    <linearGradient id="fg" x1="0" y1="0" x2="0" y2="1">
      <stop offset="0%" stop-color="#fff3c4"/>
      <stop offset="22%" stop-color="#f7cf63"/>
      <stop offset="55%" stop-color="#d9a528"/>
      <stop offset="100%" stop-color="#9c6f12"/>
    </linearGradient>
    <linearGradient id="fs" x1="0" y1="0" x2="1" y2="0">
      <stop offset="0%" stop-color="#9c6f12"/>
      <stop offset="30%" stop-color="#ffe9a0"/>
      <stop offset="50%" stop-color="#fffbe8"/>
      <stop offset="70%" stop-color="#ffe9a0"/>
      <stop offset="100%" stop-color="#8f6410"/>
    </linearGradient>
    <radialGradient id="fglobe" cx="38%" cy="30%" r="80%">
      <stop offset="0%" stop-color="#fffbe8"/>
      <stop offset="40%" stop-color="#f3c54e"/>
      <stop offset="100%" stop-color="#a9780f"/>
    </radialGradient>
    <radialGradient id="fglow" cx="50%" cy="50%" r="50%">
      <stop offset="0%" stop-color="#f5c451" stop-opacity="0.5"/>
      <stop offset="60%" stop-color="#b8860b" stop-opacity="0.12"/>
      <stop offset="100%" stop-color="#f5c451" stop-opacity="0"/>
    </radialGradient>
  </defs>
  <rect width="64" height="64" rx="14" fill="#0b0a0f"/>
  <circle cx="32" cy="29" r="30" fill="url(#fglow)"/>
  <g transform="translate(32,37.6) scale(0.35)">
    <path d="M -15 33 L 15 33 L 22 42 L 22 58 Q 22 62 18 62 L -18 62 Q -22 62 -22 58 L -22 42 Z" fill="url(#fg)"/>
    <rect x="-22" y="44" width="44" height="6.5" fill="#1f7a3d"/>
    <rect x="-22" y="52.5" width="44" height="6" fill="#1f7a3d"/>
    <path d="M -21 -80 C -32 -70 -31 -52 -25 -42 C -19 -31 -13 -15 -11 2 C -10 14 -11 24 -13 33 L 13 33 C 11 24 10 14 11 2 C 13 -15 19 -31 25 -42 C 31 -52 32 -70 21 -80 C 13 -86 7 -66 0 -58 C -7 -66 -13 -86 -21 -80 Z" fill="url(#fg)"/>
    <path d="M -5 -52 C -11 -26 -9 0 -7 31 L 6 31 C 9 0 11 -26 5 -52 C 3 -58 -3 -58 -5 -52 Z" fill="url(#fs)" opacity="0.55"/>
    <circle cx="0" cy="-70" r="24" fill="url(#fglobe)"/>
    <g transform="rotate(-12 0 -70)" fill="none" stroke="#8a5f0c" stroke-width="1.8" opacity="0.55">
      <ellipse cx="0" cy="-70" rx="24" ry="8.5"/>
      <ellipse cx="0" cy="-70" rx="8.5" ry="24"/>
      <path d="M -22.5 -78 H 22.5 M -22.5 -62 H 22.5"/>
    </g>
  </g>
</svg>
